<svg width="17" height="17" xmlns="http://www.w3.org/2000/svg" xmlns:xlink="http://www.w3.org/1999/xlink" xml:space="preserve" overflow="hidden"><g transform="translate(-163 -592)"><path d="M177.875 594.832C177.875 594.493 177.607 594.124 177.167 594.124L165.833 594.124C165.394 594.124 165.125 594.491 165.125 594.832L165.125 606.165C165.125 606.605 165.493 606.874 165.833 606.874L177.167 606.874C177.505 606.874 177.875 606.605 177.875 606.165ZM170.969 599.969 170.969 597.49C170.969 597.196 171.207 596.958 171.5 596.958 171.793 596.958 172.031 597.196 172.031 597.49L172.031 599.969 174.51 599.969C174.804 599.969 175.042 600.207 175.042 600.5 175.042 600.793 174.804 601.031 174.51 601.031L172.031 601.031 172.031 603.51C172.031 603.804 171.793 604.042 171.5 604.042 171.207 604.042 170.969 603.804 170.969 603.51L170.969 601.031 168.49 601.031C168.196 601.031 167.958 600.793 167.958 600.5 167.958 600.207 168.196 599.969 168.49 599.969Z"/></g></svg>