<svg width="17" height="17" xmlns="http://www.w3.org/2000/svg" xmlns:xlink="http://www.w3.org/1999/xlink" xml:space="preserve" overflow="hidden"><g transform="translate(-183 -592)"><path d="M196.458 606.344C196.458 606.059 196.206 605.812 195.927 605.812 194.113 605.812 187.47 605.812 185.656 605.812 185.377 605.812 185.125 606.059 185.125 606.344 185.125 606.628 185.377 606.875 185.656 606.875L195.927 606.875C196.206 606.875 196.458 606.628 196.458 606.344ZM187.942 601.327C186.997 604.1 186.894 604.324 186.894 604.576 186.894 604.949 187.22 605.106 187.424 605.106 187.674 605.106 187.897 605.009 190.664 604.049ZM188.693 600.575 191.417 603.299 197.667 597.056C197.806 596.918 197.875 596.737 197.875 596.555 197.875 596.375 197.806 596.193 197.667 596.055 197.177 595.566 196.434 594.822 195.943 594.333 195.805 594.194 195.623 594.125 195.442 594.125 195.262 594.125 195.081 594.194 194.942 594.333Z"/></g></svg>