<svg width="17" height="17" xmlns="http://www.w3.org/2000/svg" xmlns:xlink="http://www.w3.org/1999/xlink" xml:space="preserve" overflow="hidden"><g transform="translate(-264 -591)"><path d="M278.177 595.608 266.844 595.608 266.844 605.825C266.844 606.243 267.161 606.583 267.552 606.583L277.469 606.583C277.86 606.583 278.177 606.243 278.177 605.825 278.177 603.059 278.177 595.608 278.177 595.608ZM274.104 597.375C274.398 597.375 274.636 597.613 274.636 597.906L274.636 603.927C274.636 604.22 274.398 604.458 274.104 604.458 273.811 604.458 273.573 604.22 273.573 603.927L273.573 597.906C273.573 597.613 273.811 597.375 274.104 597.375ZM270.917 597.375C271.21 597.375 271.448 597.613 271.448 597.906L271.448 603.927C271.448 604.22 271.21 604.458 270.917 604.458 270.624 604.458 270.386 604.22 270.386 603.927L270.386 597.906C270.386 597.613 270.624 597.375 270.917 597.375ZM270.386 593.833 270.386 593.125C270.386 592.746 270.721 592.417 271.094 592.417L273.927 592.417C274.3 592.417 274.636 592.746 274.636 593.125L274.636 593.833 278.357 593.833C278.649 593.833 278.886 594.071 278.886 594.362 278.886 594.654 278.649 594.892 278.357 594.892L266.665 594.892C266.372 594.892 266.136 594.654 266.136 594.362 266.136 594.071 266.372 593.833 266.665 593.833ZM273.573 593.833 273.573 593.479 271.448 593.479 271.448 593.833Z"/></g></svg>